<svg xmlns="http://www.w3.org/2000/svg" width="968" height="1080" viewBox="0 0 968 1080" version="1.1"><path d="M 0 540.001 L 0 1080.002 484.250 1079.751 L 968.500 1079.500 968.751 539.750 L 969.002 0 484.501 0 L 0 0 0 540.001 M 0.496 540.500 C 0.496 837.500, 0.610 958.851, 0.750 810.168 C 0.890 661.485, 0.890 418.485, 0.750 270.168 C 0.610 121.851, 0.496 243.500, 0.496 540.500 M 257.690 62.750 C 254.666 67.606, 247 83.769, 247 85.289 C 247 86.407, 244.245 93.900, 241.351 100.651 C 240.608 102.384, 239.984 104.859, 239.965 106.151 C 239.945 107.443, 239.286 109.625, 238.500 111 C 237.714 112.375, 237.052 114.625, 237.029 116 C 237.006 117.375, 236.327 119.766, 235.520 121.314 C 234.712 122.862, 233.744 126.462, 233.367 129.314 C 232.990 132.166, 232.079 135.948, 231.341 137.718 C 225.491 151.755, 228.740 154.218, 252.689 153.903 C 262.214 153.777, 270.276 153.943, 270.604 154.271 C 272.759 156.426, 268.528 157, 250.500 157 C 227.524 157, 229.647 155.370, 229 173.500 L 228.500 187.500 213.330 188 C 204.987 188.275, 197.787 188.875, 197.330 189.333 C 196.035 190.633, 195.763 993.688, 197.057 996.106 C 198.372 998.563, 514.760 998.604, 538.500 996.150 C 545.100 995.468, 557.025 994.261, 565 993.468 C 673.624 982.666, 741.994 948.531, 786.008 883.129 C 795.805 868.570, 808.714 841.325, 811.953 828.368 C 812.384 826.645, 813.051 824.727, 813.436 824.104 C 814.678 822.093, 817.818 809.695, 818.906 802.500 C 819.488 798.650, 820.442 793.250, 821.026 790.500 C 822.351 784.262, 822.435 725.427, 821.129 718.500 C 816.960 696.383, 815.829 691.979, 810.731 678 C 806.183 665.531, 800.163 652.270, 797.296 648.406 C 796.033 646.704, 795 645.013, 795 644.648 C 795 644.284, 792.537 640.410, 789.528 636.040 C 762.447 596.723, 728.642 572.309, 675.750 553.871 C 667.321 550.933, 667.345 550.695, 676.766 544.022 C 704.477 524.393, 744 470.776, 744 452.812 C 744 451.904, 744.636 449.888, 745.413 448.331 C 748.061 443.023, 750.320 431.323, 753.101 408.500 C 764.110 318.167, 705.414 240.067, 602 207.445 C 577.760 199.799, 538.688 193.140, 505.500 190.999 C 496.700 190.431, 483.650 189.541, 476.500 189.020 C 469.350 188.500, 447.439 188.058, 427.809 188.037 C 386.200 187.994, 390.431 189.730, 390.790 172.851 C 391.152 155.857, 392.765 157, 368.429 157 C 351.825 157, 349 156.782, 349 155.500 C 349 154.219, 351.812 153.998, 368.250 153.985 C 388.514 153.969, 400.434 142.184, 387.974 134.484 C 387.541 134.217, 386.892 131.636, 386.531 128.749 C 385.840 123.218, 385.478 121.908, 379.134 102 C 373.148 83.214, 364.373 62.385, 361.409 59.925 C 360.044 58.791, 355.190 64.148, 344.498 78.588 C 329.529 98.804, 331.713 96.774, 327.364 94.506 C 323.327 92.400, 300.381 92.396, 295.346 94.500 C 289.743 96.841, 288.433 96.420, 285.219 91.250 C 283.595 88.638, 280.069 83.743, 277.383 80.373 C 274.697 77.003, 269.836 70.816, 266.579 66.623 C 259.630 57.675, 260.590 58.094, 257.690 62.750 M 276.393 122.978 C 270.972 125.169, 271.958 137.893, 277.718 140.083 C 285.014 142.857, 289.500 139.706, 289.500 131.808 C 289.500 124.101, 283.544 120.088, 276.393 122.978 M 334.646 124.452 C 329.168 129.529, 333.120 141, 340.346 141 C 344.715 141, 349 136.451, 349 131.812 C 349 123.798, 340.213 119.293, 334.646 124.452 M 243 137.911 C 243 139.214, 248.896 144, 250.501 144 C 251.242 144, 255.288 145.377, 259.492 147.060 C 275.475 153.460, 271.159 148.372, 254.140 140.750 C 245.639 136.943, 243 136.271, 243 137.911 M 369.500 139.527 C 367.300 140.883, 363.397 142.694, 360.827 143.551 C 353.480 146.002, 352.157 148.441, 358.659 147.547 C 366.157 146.516, 376 141.311, 376 138.378 C 376 136.381, 374.045 136.727, 369.500 139.527 M 301.402 148.394 C 301.091 149.206, 302.315 152.937, 304.123 156.685 C 309.682 168.212, 303.752 176.711, 295.182 169.500 C 290.282 165.376, 287.569 167.569, 292.040 172.040 C 296.248 176.248, 302.393 176.771, 307.750 173.379 C 309.731 172.125, 310.314 172.159, 312.618 173.669 C 317.261 176.711, 324.723 175.993, 328.134 172.177 C 332.642 167.131, 331.113 164.667, 326.287 169.200 C 318.541 176.477, 309.572 167.509, 315.651 158.563 C 317.200 156.284, 318.343 153.173, 318.401 151.081 L 318.500 147.500 310.234 147.209 C 303.678 146.979, 301.851 147.224, 301.402 148.394 M 264 163.519 C 252.861 166.837, 250 168.378, 250 171.059 C 250 173.615, 251.641 173.467, 256.500 170.474 C 258.700 169.119, 261.452 168.008, 262.615 168.005 C 264.872 168, 270 164.473, 270 162.927 C 270 161.798, 269.669 161.831, 264 163.519 M 350.833 163.689 C 351.420 164.784, 355.184 167.047, 359.200 168.718 C 370.333 173.351, 371 173.486, 371 171.097 C 371 168.800, 363.088 164.619, 357 163.699 C 355.075 163.408, 352.660 162.839, 351.634 162.433 C 350.017 161.795, 349.910 161.964, 350.833 163.689 M 359.250 323.622 C 357.215 324.509, 357.442 520.292, 359.480 521.984 C 361.717 523.840, 479.321 522.369, 483.336 520.434 C 484.895 519.683, 489.620 518.806, 493.836 518.486 C 501.020 517.941, 505.914 516.878, 517.134 513.426 C 519.683 512.642, 522.744 512, 523.936 512 C 525.128 512, 527.768 511.170, 529.802 510.156 C 531.836 509.142, 538.675 505.740, 545 502.595 C 566.351 491.980, 591 467.275, 591 456.491 C 591 455.805, 591.675 454.685, 592.500 454 C 593.325 453.315, 594.011 451.798, 594.025 450.628 C 594.038 449.457, 594.938 445.843, 596.025 442.595 C 598.900 434, 598.885 409.031, 596 400 C 594.900 396.557, 594 393.234, 594 392.617 C 594 390.775, 585.818 375.758, 581.221 369.163 C 566.083 347.447, 532.855 332.034, 488 325.923 C 473.797 323.988, 362.959 322.007, 359.250 323.622 M 359.035 639.944 C 357.439 640.968, 357.300 856.619, 358.894 858.269 C 359.303 858.691, 393.581 858.909, 435.069 858.752 C 513.635 858.456, 523.716 857.987, 548.632 853.473 C 553.104 852.663, 557.964 852, 559.431 852 C 560.899 852, 563.314 851.378, 564.800 850.618 C 566.285 849.858, 569.525 848.909, 572 848.509 C 574.475 848.109, 577.212 847.155, 578.082 846.388 C 578.952 845.622, 580.820 845.090, 582.234 845.207 C 583.648 845.324, 586.424 844.651, 588.402 843.710 C 592.507 841.759, 596.412 840.028, 603.342 837.086 C 623.687 828.451, 656 794.825, 656 782.289 C 656 781.706, 656.672 779.940, 657.494 778.364 C 658.315 776.789, 659.006 773.925, 659.029 772 C 659.052 770.075, 659.714 767.375, 660.500 766 C 667.124 754.413, 659.373 716.042, 646.572 697.049 C 634.645 679.352, 618.623 666.949, 593.500 655.964 C 582.698 651.241, 565.353 646.781, 549 644.523 C 542.675 643.649, 534.575 642.481, 531 641.926 C 515.784 639.566, 362.380 637.798, 359.035 639.944" stroke="none" fill="#000000" fill-rule="evenodd"/><path d="M 257.690 62.750 C 254.666 67.606, 247 83.769, 247 85.289 C 247 86.407, 244.245 93.900, 241.351 100.651 C 240.608 102.384, 239.984 104.859, 239.965 106.151 C 239.945 107.443, 239.286 109.625, 238.500 111 C 237.714 112.375, 237.052 114.625, 237.029 116 C 237.006 117.375, 236.327 119.766, 235.520 121.314 C 234.712 122.862, 233.744 126.462, 233.367 129.314 C 232.990 132.166, 232.079 135.948, 231.341 137.718 C 225.491 151.755, 228.740 154.218, 252.689 153.903 C 262.214 153.777, 270.276 153.943, 270.604 154.271 C 272.759 156.426, 268.528 157, 250.500 157 C 227.524 157, 229.647 155.370, 229 173.500 L 228.500 187.500 213.330 188 C 204.987 188.275, 197.787 188.875, 197.330 189.333 C 196.035 190.633, 195.763 993.688, 197.057 996.106 C 198.372 998.563, 514.760 998.604, 538.500 996.150 C 545.100 995.468, 557.025 994.261, 565 993.468 C 673.624 982.666, 741.994 948.531, 786.008 883.129 C 795.805 868.570, 808.714 841.325, 811.953 828.368 C 812.384 826.645, 813.051 824.727, 813.436 824.104 C 814.678 822.093, 817.818 809.695, 818.906 802.500 C 819.488 798.650, 820.442 793.250, 821.026 790.500 C 822.351 784.262, 822.435 725.427, 821.129 718.500 C 816.960 696.383, 815.829 691.979, 810.731 678 C 806.183 665.531, 800.163 652.270, 797.296 648.406 C 796.033 646.704, 795 645.013, 795 644.648 C 795 644.284, 792.537 640.410, 789.528 636.040 C 762.447 596.723, 728.642 572.309, 675.750 553.871 C 667.321 550.933, 667.345 550.695, 676.766 544.022 C 704.477 524.393, 744 470.776, 744 452.812 C 744 451.904, 744.636 449.888, 745.413 448.331 C 748.061 443.023, 750.320 431.323, 753.101 408.500 C 764.110 318.167, 705.414 240.067, 602 207.445 C 577.760 199.799, 538.688 193.140, 505.500 190.999 C 496.700 190.431, 483.650 189.541, 476.500 189.020 C 469.350 188.500, 447.439 188.058, 427.809 188.037 C 386.200 187.994, 390.431 189.730, 390.790 172.851 C 391.152 155.857, 392.765 157, 368.429 157 C 351.825 157, 349 156.782, 349 155.500 C 349 154.219, 351.812 153.998, 368.250 153.985 C 388.514 153.969, 400.434 142.184, 387.974 134.484 C 387.541 134.217, 386.892 131.636, 386.531 128.749 C 385.840 123.218, 385.478 121.908, 379.134 102 C 373.148 83.214, 364.373 62.385, 361.409 59.925 C 360.044 58.791, 355.190 64.148, 344.498 78.588 C 329.529 98.804, 331.713 96.774, 327.364 94.506 C 323.327 92.400, 300.381 92.396, 295.346 94.500 C 289.743 96.841, 288.433 96.420, 285.219 91.250 C 283.595 88.638, 280.069 83.743, 277.383 80.373 C 274.697 77.003, 269.836 70.816, 266.579 66.623 C 259.630 57.675, 260.590 58.094, 257.690 62.750 M 276.393 122.978 C 270.972 125.169, 271.958 137.893, 277.718 140.083 C 285.014 142.857, 289.500 139.706, 289.500 131.808 C 289.500 124.101, 283.544 120.088, 276.393 122.978 M 334.646 124.452 C 329.168 129.529, 333.120 141, 340.346 141 C 344.715 141, 349 136.451, 349 131.812 C 349 123.798, 340.213 119.293, 334.646 124.452 M 243 137.911 C 243 139.214, 248.896 144, 250.501 144 C 251.242 144, 255.288 145.377, 259.492 147.060 C 275.475 153.460, 271.159 148.372, 254.140 140.750 C 245.639 136.943, 243 136.271, 243 137.911 M 369.500 139.527 C 367.300 140.883, 363.397 142.694, 360.827 143.551 C 353.480 146.002, 352.157 148.441, 358.659 147.547 C 366.157 146.516, 376 141.311, 376 138.378 C 376 136.381, 374.045 136.727, 369.500 139.527 M 301.402 148.394 C 301.091 149.206, 302.315 152.937, 304.123 156.685 C 309.682 168.212, 303.752 176.711, 295.182 169.500 C 290.282 165.376, 287.569 167.569, 292.040 172.040 C 296.248 176.248, 302.393 176.771, 307.750 173.379 C 309.731 172.125, 310.314 172.159, 312.618 173.669 C 317.261 176.711, 324.723 175.993, 328.134 172.177 C 332.642 167.131, 331.113 164.667, 326.287 169.200 C 318.541 176.477, 309.572 167.509, 315.651 158.563 C 317.200 156.284, 318.343 153.173, 318.401 151.081 L 318.500 147.500 310.234 147.209 C 303.678 146.979, 301.851 147.224, 301.402 148.394 M 264 163.519 C 252.861 166.837, 250 168.378, 250 171.059 C 250 173.615, 251.641 173.467, 256.500 170.474 C 258.700 169.119, 261.452 168.008, 262.615 168.005 C 264.872 168, 270 164.473, 270 162.927 C 270 161.798, 269.669 161.831, 264 163.519 M 350.833 163.689 C 351.420 164.784, 355.184 167.047, 359.200 168.718 C 370.333 173.351, 371 173.486, 371 171.097 C 371 168.800, 363.088 164.619, 357 163.699 C 355.075 163.408, 352.660 162.839, 351.634 162.433 C 350.017 161.795, 349.910 161.964, 350.833 163.689 M 359.250 323.622 C 357.215 324.509, 357.442 520.292, 359.480 521.984 C 361.717 523.840, 479.321 522.369, 483.336 520.434 C 484.895 519.683, 489.620 518.806, 493.836 518.486 C 501.020 517.941, 505.914 516.878, 517.134 513.426 C 519.683 512.642, 522.744 512, 523.936 512 C 525.128 512, 527.768 511.170, 529.802 510.156 C 531.836 509.142, 538.675 505.740, 545 502.595 C 566.351 491.980, 591 467.275, 591 456.491 C 591 455.805, 591.675 454.685, 592.500 454 C 593.325 453.315, 594.011 451.798, 594.025 450.628 C 594.038 449.457, 594.938 445.843, 596.025 442.595 C 598.900 434, 598.885 409.031, 596 400 C 594.900 396.557, 594 393.234, 594 392.617 C 594 390.775, 585.818 375.758, 581.221 369.163 C 566.083 347.447, 532.855 332.034, 488 325.923 C 473.797 323.988, 362.959 322.007, 359.250 323.622 M 359.035 639.944 C 357.439 640.968, 357.300 856.619, 358.894 858.269 C 359.303 858.691, 393.581 858.909, 435.069 858.752 C 513.635 858.456, 523.716 857.987, 548.632 853.473 C 553.104 852.663, 557.964 852, 559.431 852 C 560.899 852, 563.314 851.378, 564.800 850.618 C 566.285 849.858, 569.525 848.909, 572 848.509 C 574.475 848.109, 577.212 847.155, 578.082 846.388 C 578.952 845.622, 580.820 845.090, 582.234 845.207 C 583.648 845.324, 586.424 844.651, 588.402 843.710 C 592.507 841.759, 596.412 840.028, 603.342 837.086 C 623.687 828.451, 656 794.825, 656 782.289 C 656 781.706, 656.672 779.940, 657.494 778.364 C 658.315 776.789, 659.006 773.925, 659.029 772 C 659.052 770.075, 659.714 767.375, 660.500 766 C 667.124 754.413, 659.373 716.042, 646.572 697.049 C 634.645 679.352, 618.623 666.949, 593.500 655.964 C 582.698 651.241, 565.353 646.781, 549 644.523 C 542.675 643.649, 534.575 642.481, 531 641.926 C 515.784 639.566, 362.380 637.798, 359.035 639.944" stroke="none" fill="#c1e104" fill-rule="evenodd"/></svg>